<svg xmlns="http://www.w3.org/2000/svg" xmlns:xlink="http://www.w3.org/1999/xlink" width="384" zoomAndPan="magnify" viewBox="0 0 288 95.999998" height="127" preserveAspectRatio="xMidYMid meet" version="1.0"><defs><g/></defs><g fill="#f6c44c" fill-opacity="1"><g transform="translate(22.896036, 64.196898)"><g><path d="M 136.019531 -47.863281 C 136.277344 -48.035156 136.191406 -48.386719 136.019531 -48.734375 C 133.492188 -53.78125 128.621094 -55.609375 123.398438 -55.609375 C 115.914062 -55.609375 106.429688 -51.257812 97.117188 -45.078125 C 84.761719 -36.722656 72.316406 -25.847656 65.441406 -20.449219 C 59.4375 -15.839844 53.953125 -11.574219 47.601562 -7.484375 C 42.46875 -4.175781 33.765625 0.785156 31.15625 0.785156 C 30.371094 0.785156 30.109375 0.695312 30.109375 0.175781 C 30.109375 -0.871094 31.9375 -2.4375 33.589844 -3.742188 C 38.988281 -8.179688 43.773438 -12.269531 50.734375 -18.796875 C 62.046875 -29.589844 69.878906 -38.117188 74.230469 -44.992188 C 75.101562 -46.382812 76.058594 -48.644531 76.40625 -50.300781 C 79.191406 -49.863281 82.0625 -48.996094 83.804688 -48.210938 C 84.585938 -47.863281 85.023438 -47.515625 85.195312 -47.6875 C 85.542969 -48.125 85.109375 -48.558594 84.414062 -48.996094 C 82.933594 -49.863281 79.453125 -51.082031 76.492188 -51.605469 C 76.582031 -53.085938 76.234375 -54.5625 75.273438 -55.609375 C 75.101562 -54.652344 74.667969 -53.34375 74.144531 -52.039062 C 70.316406 -52.824219 64.570312 -53.433594 56.828125 -53.433594 C 44.902344 -53.433594 31.761719 -50.734375 21.582031 -43.425781 C 12.269531 -36.8125 7.65625 -26.890625 7.65625 -19.40625 C 7.65625 -10.703125 11.398438 -6.613281 15.140625 -4.613281 C 15.488281 -4.4375 16.011719 -4.351562 16.097656 -4.699219 C 16.1875 -5.046875 15.578125 -5.308594 15.140625 -5.65625 C 12.617188 -7.65625 9.3125 -10.964844 9.3125 -18.621094 C 9.3125 -25.847656 14.097656 -33.9375 23.0625 -40.8125 C 32.285156 -47.863281 46.992188 -51.691406 56.914062 -51.691406 C 64.222656 -51.691406 69.359375 -51.34375 73.359375 -50.734375 C 72.230469 -48.734375 70.664062 -46.46875 68.921875 -44.296875 C 62.484375 -36.289062 57.609375 -31.066406 50.648438 -24.105469 C 43.945312 -17.40625 38.988281 -13.316406 30.804688 -5.65625 C 28.628906 -3.742188 26.019531 -0.871094 26.019531 0.957031 C 26.019531 2.4375 27.238281 2.871094 28.628906 2.871094 C 32.980469 2.871094 42.03125 -2.523438 48.210938 -6.351562 C 56.738281 -11.574219 64.398438 -17.230469 69.359375 -21.320312 C 73.359375 -24.628906 81.714844 -32.113281 89.285156 -37.679688 C 89.722656 -38.027344 89.980469 -37.941406 89.632812 -37.59375 C 84.675781 -32.894531 74.058594 -22.015625 68.574219 -16.011719 C 61.875 -8.964844 56.828125 -3.394531 48.996094 3.308594 C 38.898438 11.75 24.890625 20.972656 11.75 20.972656 C 0 20.972656 -5.832031 16.796875 -5.832031 9.746094 C -5.832031 5.917969 -3.65625 1.304688 0.785156 -2 C 1.390625 -2.4375 1.742188 -2.699219 1.566406 -2.957031 C 1.304688 -3.308594 0.433594 -2.957031 -0.347656 -2.4375 C -5.046875 0.695312 -7.398438 5.484375 -7.398438 9.832031 C -7.398438 17.664062 -1.304688 22.453125 11.574219 22.453125 C 26.367188 22.453125 40.378906 15.664062 51.691406 6.441406 C 59.4375 0.175781 66.921875 -9.222656 75.363281 -19.230469 C 77.101562 -21.320312 84.847656 -31.066406 91.898438 -37.941406 C 101.644531 -47.253906 113.128906 -52.5625 122.878906 -52.5625 C 127.054688 -52.5625 131.667969 -52.214844 135.410156 -48.125 C 135.582031 -47.949219 135.757812 -47.6875 136.019531 -47.863281 Z M 136.019531 -47.863281 "/></g></g></g><g fill="#f6c44c" fill-opacity="1"><g transform="translate(99.215588, 64.196898)"><g><path d="M 8.179688 -14.707031 C 8.527344 -14.53125 9.136719 -14.359375 9.832031 -14.359375 C 12.445312 -14.359375 16.359375 -15.839844 19.144531 -17.753906 C 21.582031 -19.40625 23.757812 -21.757812 23.757812 -23.582031 C 23.757812 -24.800781 22.886719 -25.757812 21.148438 -25.757812 C 16.96875 -25.757812 8.441406 -20.796875 2.609375 -15.316406 C -2.957031 -9.921875 -4.175781 -5.570312 -4.175781 -3.308594 C -4.175781 0.0859375 -1.828125 0.785156 0.261719 0.785156 C 3.65625 0.785156 7.484375 -1.304688 10.355469 -3.308594 C 14.183594 -5.917969 17.492188 -8.703125 20.449219 -11.398438 C 20.796875 -11.75 21.234375 -12.269531 20.886719 -12.617188 C 20.539062 -12.964844 19.929688 -12.445312 19.320312 -11.921875 C 17.054688 -9.921875 12.707031 -6.089844 8.527344 -3.480469 C 5.570312 -1.652344 2.785156 -0.523438 1.042969 -0.523438 C -0.347656 -0.523438 -0.957031 -1.132812 -0.957031 -2.261719 C -0.957031 -5.046875 3.828125 -10.703125 8.179688 -14.707031 Z M 8.789062 -15.316406 C 12.792969 -19.230469 19.839844 -24.714844 21.667969 -24.714844 C 22.105469 -24.714844 22.277344 -24.539062 22.277344 -24.191406 C 22.277344 -23.148438 20.625 -21.148438 18.1875 -19.230469 C 14.882812 -16.535156 11.226562 -15.140625 9.484375 -15.140625 C 9.222656 -15.140625 8.964844 -15.230469 8.789062 -15.316406 Z M 8.789062 -15.316406 "/></g></g></g><g fill="#f6c44c" fill-opacity="1"><g transform="translate(117.31646, 64.196898)"><g><path d="M 44.730469 -45.949219 C 42.554688 -46.035156 40.726562 -45.773438 39.335938 -45.339844 C 37.679688 -44.816406 35.941406 -43.945312 34.027344 -42.730469 C 28.109375 -38.726562 18.101562 -29.9375 8.703125 -20.363281 C 3.21875 -14.792969 -0.695312 -10.09375 -2.523438 -7.136719 C -3.742188 -5.222656 -4.4375 -3.480469 -4.4375 -2.175781 C -4.4375 -0.261719 -3.394531 0.785156 -1.480469 0.785156 C 0.523438 0.785156 3.566406 -0.871094 6.613281 -3.046875 C 9.832031 -5.308594 14.621094 -9.3125 16.621094 -11.140625 C 17.054688 -11.574219 17.316406 -12.007812 17.054688 -12.355469 C 16.621094 -12.792969 16.097656 -12.183594 15.75 -11.921875 C 13.664062 -10.09375 8.875 -6.003906 6.351562 -4.265625 C 3.308594 -2 0.785156 -0.785156 -0.523438 -0.785156 C -1.132812 -0.785156 -1.480469 -1.042969 -1.480469 -1.566406 C -1.480469 -2.523438 -0.523438 -4.089844 0.957031 -6.089844 C 3.308594 -9.222656 7.050781 -13.316406 10.789062 -17.230469 C 20.539062 -27.238281 28.980469 -35.246094 37.855469 -41.945312 C 39.335938 -43.078125 42.378906 -45.164062 44.730469 -45.773438 C 45.078125 -45.863281 44.992188 -45.949219 44.730469 -45.949219 Z M 44.730469 -45.949219 "/></g></g></g><g fill="#f6c44c" fill-opacity="1"><g transform="translate(131.849379, 64.196898)"><g><path d="M 44.730469 -45.949219 C 42.554688 -46.035156 40.726562 -45.773438 39.335938 -45.339844 C 37.679688 -44.816406 35.941406 -43.945312 34.027344 -42.730469 C 28.109375 -38.726562 18.101562 -29.9375 8.703125 -20.363281 C 3.21875 -14.792969 -0.695312 -10.09375 -2.523438 -7.136719 C -3.742188 -5.222656 -4.4375 -3.480469 -4.4375 -2.175781 C -4.4375 -0.261719 -3.394531 0.785156 -1.480469 0.785156 C 0.523438 0.785156 3.566406 -0.871094 6.613281 -3.046875 C 9.832031 -5.308594 14.621094 -9.3125 16.621094 -11.140625 C 17.054688 -11.574219 17.316406 -12.007812 17.054688 -12.355469 C 16.621094 -12.792969 16.097656 -12.183594 15.75 -11.921875 C 13.664062 -10.09375 8.875 -6.003906 6.351562 -4.265625 C 3.308594 -2 0.785156 -0.785156 -0.523438 -0.785156 C -1.132812 -0.785156 -1.480469 -1.042969 -1.480469 -1.566406 C -1.480469 -2.523438 -0.523438 -4.089844 0.957031 -6.089844 C 3.308594 -9.222656 7.050781 -13.316406 10.789062 -17.230469 C 20.539062 -27.238281 28.980469 -35.246094 37.855469 -41.945312 C 39.335938 -43.078125 42.378906 -45.164062 44.730469 -45.773438 C 45.078125 -45.863281 44.992188 -45.949219 44.730469 -45.949219 Z M 44.730469 -45.949219 "/></g></g></g><g fill="#f6c44c" fill-opacity="1"><g transform="translate(146.382298, 64.196898)"><g><path d="M 21.582031 -25.757812 C 16.796875 -25.757812 8.964844 -21.757812 2.957031 -15.664062 C -1.304688 -11.226562 -3.828125 -6.441406 -3.828125 -3.308594 C -3.828125 -0.695312 -2.4375 0.785156 -0.0859375 0.785156 C 3.394531 0.785156 10.007812 -3.65625 16.96875 -10.703125 C 22.363281 -16.097656 24.890625 -20.625 24.890625 -23.234375 C 24.890625 -25.0625 23.671875 -25.757812 21.582031 -25.757812 Z M 23.496094 -23.582031 C 23.496094 -21.320312 18.972656 -15.925781 16.011719 -12.878906 C 8.875 -5.570312 2.609375 -0.261719 0 -0.261719 C -0.785156 -0.261719 -1.390625 -0.609375 -1.390625 -1.742188 C -1.390625 -3.917969 2.175781 -8.09375 6.179688 -12.355469 C 13.316406 -19.667969 19.753906 -24.539062 22.453125 -24.539062 C 23.148438 -24.539062 23.496094 -24.191406 23.496094 -23.582031 Z M 23.496094 -23.582031 "/></g></g></g><g fill="#f6c44c" fill-opacity="1"><g transform="translate(168.138154, 64.196898)"><g><path d="M 21.234375 -23.757812 C 21.582031 -24.019531 21.84375 -24.191406 21.84375 -24.28125 C 21.84375 -24.453125 21.757812 -24.628906 21.148438 -24.628906 C 19.839844 -24.800781 18.449219 -24.890625 17.144531 -24.890625 C 13.226562 -24.890625 9.921875 -24.28125 8.527344 -23.84375 C 6.613281 -23.234375 5.742188 -22.015625 5.742188 -21.148438 C 5.742188 -20.710938 5.917969 -20.277344 6.003906 -20.277344 C 6.441406 -20.277344 7.050781 -21.496094 9.136719 -22.277344 C 11.3125 -23.0625 14.707031 -23.757812 18.449219 -23.757812 C 12.269531 -21.582031 4.960938 -16.1875 1.914062 -12.878906 C -1.914062 -8.875 -4.089844 -4.699219 -4.089844 -2.175781 C -4.089844 -0.433594 -3.21875 0.695312 -0.871094 0.695312 C 2.089844 0.695312 6.265625 -2.4375 8.875 -4.613281 C 9.921875 -5.484375 11.3125 -6.789062 12.792969 -8.265625 C 11.488281 -6.179688 10.789062 -4.351562 10.789062 -2.871094 C 10.789062 -0.433594 12.355469 0.695312 14.359375 0.695312 C 17.578125 0.695312 21.667969 -2.4375 23.757812 -4.003906 C 25.933594 -5.65625 32.113281 -11.140625 36.550781 -15.75 C 38.550781 -17.839844 40.117188 -19.582031 41.511719 -21.234375 C 42.46875 -22.363281 43.425781 -24.019531 43.425781 -24.800781 C 43.425781 -25.496094 42.816406 -25.757812 41.945312 -25.757812 C 40.03125 -25.757812 37.421875 -24.628906 37.421875 -24.019531 C 37.421875 -23.496094 37.769531 -23.0625 37.769531 -22.277344 C 37.769531 -21.582031 37.59375 -20.710938 36.550781 -19.320312 C 32.113281 -13.316406 27.152344 -8.355469 22.972656 -5.046875 C 20.710938 -3.21875 16.796875 -0.695312 14.96875 -0.695312 C 14.183594 -0.695312 13.835938 -1.132812 13.835938 -1.914062 C 13.835938 -3.046875 15.054688 -5.046875 16.796875 -7.308594 C 19.492188 -10.789062 24.191406 -16.621094 31.851562 -22.453125 C 32.199219 -22.800781 32.371094 -22.972656 32.371094 -23.234375 C 32.371094 -23.410156 32.113281 -23.671875 31.675781 -23.671875 C 31.503906 -23.671875 30.71875 -23.410156 30.285156 -23.324219 C 26.367188 -21.757812 22.625 -18.796875 18.363281 -14.707031 C 16.273438 -12.707031 12.53125 -9.3125 8.265625 -5.65625 C 5.832031 -3.566406 1.566406 -0.695312 -0.175781 -0.695312 C -0.785156 -0.695312 -1.042969 -1.132812 -1.042969 -1.566406 C -1.042969 -2.699219 0.347656 -4.875 2.4375 -7.222656 C 5.308594 -10.441406 13.316406 -18.621094 21.234375 -23.757812 Z M 21.234375 -23.757812 "/></g></g></g><g fill="#f6c44c" fill-opacity="1"><g transform="translate(206.341446, 64.196898)"><g><path d="M 54.738281 -48.734375 C 59.175781 -48.734375 61.960938 -46.730469 63.613281 -45.164062 C 64.222656 -44.644531 64.917969 -43.6875 65.355469 -43.773438 C 65.789062 -43.945312 66.050781 -44.296875 66.050781 -44.902344 C 66.050781 -48.035156 61.4375 -50.039062 55.171875 -50.039062 C 47.167969 -50.039062 39.074219 -46.296875 32.285156 -41.25 C 24.453125 -35.59375 15.75 -26.28125 12.878906 -23.234375 C 10.789062 -23.148438 7.398438 -23.148438 6.351562 -23.0625 C 6.089844 -23.0625 5.570312 -22.886719 5.570312 -22.539062 C 5.570312 -22.277344 5.65625 -22.105469 6.265625 -22.105469 C 7.398438 -22.105469 10.617188 -22.191406 11.835938 -22.105469 C 1.742188 -11.574219 -1.742188 -7.484375 -7.398438 -1.480469 C -18.796875 10.617188 -32.371094 23.582031 -49.429688 23.582031 C -58.480469 23.582031 -65.179688 19.582031 -65.964844 13.75 C -66.136719 12.878906 -66.136719 12.269531 -66.574219 12.355469 C -67.09375 12.445312 -67.183594 13.316406 -67.007812 14.621094 C -66.398438 20.1875 -59.871094 24.976562 -49.34375 24.976562 C -31.328125 24.976562 -16.097656 13.402344 -2.261719 -1.21875 C 6.089844 -10.09375 10.53125 -15.140625 16.621094 -22.015625 C 18.621094 -22.105469 20.796875 -22.191406 23.496094 -22.191406 C 24.019531 -22.191406 24.539062 -22.191406 24.628906 -22.539062 C 24.800781 -23.0625 24.191406 -23.148438 24.019531 -23.148438 C 21.757812 -23.234375 19.230469 -23.234375 17.578125 -23.234375 C 22.277344 -28.195312 29.414062 -35.332031 34.113281 -39.160156 C 41.074219 -44.902344 46.558594 -48.734375 54.738281 -48.734375 Z M 54.738281 -48.734375 "/></g></g></g><g fill="#f6c44c" fill-opacity="1"><g transform="translate(221.222447, 64.196898)"><g><path d="M 26.105469 -32.460938 C 26.105469 -33.765625 24.976562 -34.894531 23.671875 -34.894531 C 22.363281 -34.894531 21.148438 -33.765625 21.148438 -32.460938 C 21.148438 -31.15625 22.363281 -30.023438 23.671875 -30.023438 C 24.976562 -30.023438 26.105469 -31.15625 26.105469 -32.460938 Z M 20.101562 -25.238281 C 18.972656 -25.324219 16.621094 -25.0625 15.316406 -24.367188 C 11.835938 -22.453125 5.308594 -16.359375 1.914062 -12.878906 C -2 -8.703125 -4.523438 -4.613281 -4.523438 -2 C -4.523438 -0.0859375 -3.566406 0.785156 -1.480469 0.785156 C 1.390625 0.785156 5.308594 -1.742188 8.09375 -3.828125 C 10.183594 -5.394531 15.054688 -9.484375 17.230469 -11.488281 C 17.664062 -11.835938 17.839844 -12.183594 17.578125 -12.445312 C 17.230469 -12.878906 16.796875 -12.617188 16.273438 -12.097656 C 14.445312 -10.53125 10.269531 -6.960938 7.308594 -4.699219 C 5.132812 -3.132812 1.304688 -0.609375 -0.523438 -0.609375 C -1.132812 -0.609375 -1.480469 -0.957031 -1.480469 -1.480469 C -1.480469 -2.785156 -0.0859375 -4.699219 2 -7.222656 C 5.046875 -10.789062 12.617188 -18.535156 20.101562 -25.238281 Z M 20.101562 -25.238281 "/></g></g></g><g fill="#f6c44c" fill-opacity="1"><g transform="translate(236.016432, 64.196898)"><g><path d="M 31.242188 -12.007812 C 30.894531 -12.355469 30.371094 -12.007812 30.023438 -11.660156 C 27.671875 -9.746094 23.84375 -6.351562 20.796875 -4.175781 C 17.925781 -2.175781 14.882812 -0.609375 13.488281 -0.609375 C 12.878906 -0.609375 12.53125 -0.871094 12.53125 -1.480469 C 12.53125 -2.4375 13.402344 -3.566406 15.664062 -5.917969 C 17.492188 -7.832031 19.839844 -10.183594 22.625 -12.707031 C 25.757812 -15.488281 30.71875 -20.1875 30.71875 -23.148438 C 30.71875 -24.453125 29.847656 -25.585938 27.933594 -25.585938 C 23.324219 -25.585938 12.445312 -17.839844 8.09375 -14.183594 C 7.917969 -14.011719 7.832031 -14.183594 8.09375 -14.445312 C 11.921875 -18.796875 16.796875 -23.148438 19.839844 -25.238281 C 17.664062 -25.238281 15.230469 -24.800781 13.75 -23.84375 C 11.660156 -22.453125 8.527344 -19.753906 5.742188 -16.796875 C -1.042969 -9.746094 -5.832031 -2.699219 -5.832031 -0.871094 C -5.832031 0.175781 -5.394531 1.132812 -4.699219 1.132812 C -0.0859375 -4.699219 2 -7.136719 6.351562 -11.226562 C 12.007812 -16.535156 24.191406 -24.28125 27.152344 -24.28125 C 27.585938 -24.28125 27.761719 -24.105469 27.761719 -23.757812 C 27.671875 -22.277344 21.582031 -17.492188 18.882812 -15.054688 C 15.316406 -11.75 13.574219 -10.183594 11.398438 -7.136719 C 10.183594 -5.394531 9.484375 -3.65625 9.484375 -2.351562 C 9.484375 -0.261719 10.617188 0.785156 12.617188 0.785156 C 14.707031 0.785156 17.753906 -0.695312 20.972656 -2.871094 C 24.191406 -5.132812 27.847656 -8.265625 30.546875 -10.617188 C 30.980469 -10.964844 31.675781 -11.574219 31.242188 -12.007812 Z M 31.242188 -12.007812 "/></g></g></g></svg>